<svg xmlns="http://www.w3.org/2000/svg" width="592" height="592" viewBox="0 0 444 444"><path d="m7 0h181c3.867188 0 7 3.132812 7 7v181c0 3.867188-3.132812 7-7 7h-181c-3.867188 0-7-3.132812-7-7v-181c0-3.867188 3.132812-7 7-7zm0 0"/><path d="m256 0h181c3.867188 0 7 3.132812 7 7v181c0 3.867188-3.132812 7-7 7h-181c-3.867188 0-7-3.132812-7-7v-181c0-3.867188 3.132812-7 7-7zm0 0"/><path d="m7 249h181c3.867188 0 7 3.132812 7 7v181c0 3.867188-3.132812 7-7 7h-181c-3.867188 0-7-3.132812-7-7v-181c0-3.867188 3.132812-7 7-7zm0 0"/><path d="m256 249h181c3.867188 0 7 3.132812 7 7v181c0 3.867188-3.132812 7-7 7h-181c-3.867188 0-7-3.132812-7-7v-181c0-3.867188 3.132812-7 7-7zm0 0"/></svg>